<svg width="19" height="19" viewBox="0 0 19 19" fill="none" xmlns="http://www.w3.org/2000/svg">
<path d="M18.6014 16.8889L13.641 11.9112C14.5268 10.6667 15.0583 9.15556 15.0583 7.55556C15.0583 3.37774 11.6923 0 7.52916 0C3.36601 0 0 3.37779 0 7.55556C0 11.7333 3.36597 15.1111 7.52911 15.1111C9.12352 15.1111 10.6294 14.5778 11.8695 13.6889L16.8298 18.6667C17.2727 19.1111 18.0699 19.1111 18.6014 18.6667C19.1329 18.1334 19.1329 17.4222 18.6014 16.8889ZM7.52911 13.3334C4.3403 13.3334 1.77156 10.7556 1.77156 7.5556C1.77156 4.35559 4.3403 1.77783 7.52911 1.77783C10.7179 1.77783 13.2867 4.35559 13.2867 7.5556C13.2867 10.7556 10.7179 13.3334 7.52911 13.3334Z" fill="white"/>
</svg>
