<svg width="42" height="33" viewBox="0 0 42 33" fill="none" xmlns="http://www.w3.org/2000/svg">
<g opacity="0.2">
<path fill-rule="evenodd" clip-rule="evenodd" d="M13.1582 30.5212C5.38842 28.7017 0.564772 20.928 2.3843 13.1582C4.20383 5.3884 11.9775 0.564773 19.7473 2.3843C27.5171 4.20383 32.3408 11.9775 30.5212 19.7473C28.7017 27.5171 20.928 32.3408 13.1582 30.5212ZM0.436985 12.7022C-1.6344 21.5475 3.85692 30.3972 12.7022 32.4685C19.5011 34.0607 26.3026 31.1847 30.0265 25.7518L40.4493 32.7388L41.5629 31.0776L31.0553 24.0336C31.6704 22.8465 32.1498 21.5646 32.4686 20.2033C34.5399 11.358 29.0486 2.50837 20.2033 0.436985C11.3581 -1.6344 2.50837 3.85691 0.436985 12.7022Z" fill="#1D1D1B"/>
<path d="M20.9402 17.5167H17.5133V20.94H15.7153V17.5167H12.2707V15.7116H15.7153V12.2705H17.5133V15.7116H20.9402V17.5167Z" fill="black"/>
</g>
</svg>
