<svg width="40" height="24" viewBox="0 0 40 24" fill="none" xmlns="http://www.w3.org/2000/svg">
<path d="M10.8494 1H4.04938C2.7018 1 1.60938 2.09243 1.60938 3.44V20.1C1.60938 21.4476 2.7018 22.54 4.04938 22.54H10.8494C12.197 22.54 13.2894 21.4476 13.2894 20.1V3.44C13.2894 2.09243 12.197 1 10.8494 1Z" fill="#3B9F0C"/>
<path d="M36.8 1H27.32C26.7291 1 26.25 1.47906 26.25 2.07001V21.47C26.25 22.0609 26.7291 22.54 27.32 22.54H36.8C37.3909 22.54 37.87 22.0609 37.87 21.47V2.07001C37.87 1.47906 37.3909 1 36.8 1Z" fill="#DC0303"/>
<path d="M24.2793 1H14.5693C13.8569 1 13.2793 1.57756 13.2793 2.29001V21.25C13.2793 21.9624 13.8569 22.54 14.5693 22.54H24.2793C24.9917 22.54 25.5693 21.9624 25.5693 21.25V2.29001C25.5693 1.57756 24.9917 1 24.2793 1Z" fill="white"/>
<path d="M25.7703 22.54H36.0003C36.3203 22.54 36.6371 22.4768 36.9326 22.3541C37.2281 22.2313 37.4963 22.0514 37.7221 21.8247C37.9479 21.598 38.1267 21.3289 38.2482 21.033C38.3698 20.737 38.4316 20.4199 38.4303 20.1V3.42999C38.4303 2.78552 38.1743 2.16744 37.7186 1.71173C37.2629 1.25602 36.6448 1 36.0003 1H3.50033C2.85585 1 2.23778 1.25602 1.78206 1.71173C1.32635 2.16744 1.07033 2.78552 1.07033 3.42999V20.1C1.06902 20.4199 1.13087 20.737 1.2524 21.033C1.37393 21.3289 1.55275 21.598 1.77852 21.8247C2.0043 22.0514 2.2726 22.2313 2.56807 22.3541C2.86355 22.4768 3.18037 22.54 3.50033 22.54H13.1003" stroke="#020202" stroke-width="1.5" stroke-linecap="round" stroke-linejoin="round"/>
<path d="M13.0996 22.54H25.7696" stroke="#020202" stroke-width="1.5" stroke-linecap="round" stroke-linejoin="round"/>
<path d="M13.0996 22.54V1" stroke="#020202" stroke-width="1.5" stroke-miterlimit="10"/>
<path d="M25.7695 22.54V1" stroke="#020202" stroke-width="1.5" stroke-miterlimit="10"/>
</svg>
