<svg width="27" height="27" viewBox="0 0 27 27" fill="none" xmlns="http://www.w3.org/2000/svg">
<path fill-rule="evenodd" clip-rule="evenodd" d="M0 13.4043C0 20.7971 5.8444 26.8085 13.0319 26.8085C20.2194 26.8085 26.0638 20.8345 26.0638 13.4043C26.0638 6.01138 20.2194 0 13.0319 0C5.8444 0 0 6.01138 0 13.4043ZM13.2614 7.29225H13.2613H13.2613C11.3334 7.29225 11.1109 7.29225 10.3323 7.32933C9.59083 7.3664 9.22008 7.47763 8.96054 7.58886C8.58979 7.73716 8.36732 7.88546 8.10779 8.14499C7.84826 8.40452 7.69996 8.66406 7.55166 8.99774C7.44043 9.25727 7.32921 9.6651 7.29213 10.3695C7.25505 11.1111 7.25505 11.3335 7.25505 13.2985C7.25505 15.2265 7.25505 15.4489 7.29213 16.2275C7.32921 16.9691 7.44043 17.3398 7.55166 17.5993C7.69996 17.9701 7.84826 18.1926 8.10779 18.4521C8.36732 18.7116 8.62686 18.8599 8.96054 19.0082C9.22008 19.1194 9.6279 19.2307 10.3323 19.2678C11.0739 19.3048 11.2963 19.3048 13.2613 19.3048C15.1893 19.3048 15.4117 19.3048 16.1903 19.2678C16.9319 19.2307 17.3026 19.1194 17.5621 19.0082C17.9329 18.8599 18.1554 18.7116 18.4149 18.4521C18.6744 18.1926 18.8227 17.933 18.971 17.5993C19.0823 17.3398 19.1935 16.932 19.2306 16.2275C19.2676 15.486 19.2676 15.2636 19.2676 13.2985C19.2676 11.3706 19.2676 11.1481 19.2306 10.3695C19.1935 9.62803 19.0823 9.25727 18.971 8.99774C18.8227 8.62698 18.6744 8.40452 18.4149 8.14499C18.1554 7.88546 17.8958 7.73716 17.5621 7.58886C17.3026 7.47763 16.8948 7.3664 16.1903 7.32933C15.4488 7.29225 15.2264 7.29225 13.2614 7.29225ZM13.2613 5.95752H13.2613H13.2614C15.2635 5.95752 15.523 5.95752 16.2645 5.9946C17.0431 6.03167 17.5621 6.1429 18.0441 6.32828C18.5261 6.51366 18.934 6.77319 19.3418 7.18102C19.7496 7.58886 20.0091 7.99669 20.1945 8.47868C20.3799 8.96066 20.4911 9.47973 20.5282 10.2583C20.5653 11.0369 20.5653 11.2964 20.5653 13.2615C20.5653 15.2265 20.5653 15.486 20.5282 16.2646C20.4911 17.0432 20.3799 17.5623 20.1945 18.0442C20.0091 18.5262 19.7496 18.9341 19.3418 19.3419C18.934 19.7497 18.5261 20.0093 18.0441 20.1946C17.5621 20.38 17.0431 20.4913 16.2645 20.5283C15.486 20.5654 15.2264 20.5654 13.262 20.5654H13.2613H13.2607C11.2963 20.5654 11.0367 20.5654 10.2582 20.5283C9.47961 20.4913 8.96054 20.38 8.47855 20.1946C7.99657 20.0093 7.58873 19.7497 7.1809 19.3419C6.77306 18.9341 6.51354 18.5262 6.32816 18.0442C6.14278 17.5623 6.03155 17.0432 5.99448 16.2646C5.9574 15.486 5.9574 15.2265 5.9574 13.2615C5.9574 11.2964 5.9574 11.0369 5.99448 10.2583C6.03155 9.47973 6.14278 8.96066 6.32816 8.47868C6.51354 7.99669 6.77306 7.58886 7.1809 7.18102C7.58873 6.77319 7.99657 6.51366 8.47855 6.32828C8.96054 6.1429 9.47961 6.03167 10.2582 5.9946C11.0368 5.95752 11.2963 5.95752 13.2613 5.95752ZM13.261 9.5166C11.1848 9.5166 9.51636 11.185 9.51636 13.2613C9.51636 15.3375 11.1848 17.0059 13.261 17.0059C15.3373 17.0059 17.0057 15.3375 17.0057 13.2613C17.0057 11.185 15.3373 9.5166 13.261 9.5166ZM13.261 15.6712C11.9263 15.6712 10.814 14.596 10.814 13.2242C10.814 11.8895 11.8892 10.7772 13.261 10.7772C14.5958 10.7772 15.708 11.8524 15.708 13.2242C15.708 14.596 14.6328 15.6712 13.261 15.6712ZM17.1545 10.2582C17.6365 10.2582 18.0443 9.85032 18.0443 9.36834C18.0443 8.88635 17.6365 8.47852 17.1545 8.47852C16.6725 8.47852 16.2646 8.88635 16.2646 9.36834C16.2646 9.85032 16.6725 10.2582 17.1545 10.2582Z" fill="#939393"/>
</svg>
