<svg width="23" height="29" viewBox="0 0 23 29" fill="none" xmlns="http://www.w3.org/2000/svg">
<path d="M20.4867 5.87054L20.4797 5.77811H20.387H16.9051C16.7361 2.87945 14.3895 0.536719 11.5455 0.536719C8.70132 0.536719 6.35468 2.87402 6.18049 5.77811H2.6438H2.55086L2.54407 5.87081L0.900267 28.3112L0.892407 28.4185H1H22.0909H22.1988L22.1906 28.311L20.4867 5.87054ZM19.3384 7.15799L20.7982 27.0387H2.35275L3.81257 7.15799H6.17V10.9437V11.0437H6.27H7.40591H7.50591V10.9437V7.15799H15.585V10.9437V11.0437H15.685H16.8209H16.9209V10.9437V7.15799H19.3384ZM11.5455 1.9166C13.6444 1.9166 15.4049 3.63024 15.5727 5.77811H7.51816C7.68602 3.63024 9.4465 1.9166 11.5455 1.9166Z" fill="#FFD12E" stroke="#FFD12E" stroke-width="0.2"/>
</svg>
