<svg width="377" height="389" viewBox="0 0 377 389" fill="none" xmlns="http://www.w3.org/2000/svg">
<g filter="url(#filter0_d)">
<path d="M20 16V365H147.04C152.272 364.963 157.439 363.829 162.206 361.672C166.973 359.516 171.235 356.384 174.717 352.479C176.462 350.557 178.59 349.022 180.963 347.971C183.337 346.92 185.904 346.377 188.5 346.377C191.096 346.377 193.663 346.92 196.037 347.971C198.41 349.022 200.538 350.557 202.283 352.479C205.765 356.381 210.027 359.511 214.793 361.666C219.559 363.82 224.724 364.953 229.954 364.989H357V16H20Z" fill="white"/>
</g>
<defs>
<filter id="filter0_d" x="0" y="0" width="377" height="389" filterUnits="userSpaceOnUse" color-interpolation-filters="sRGB">
<feFlood flood-opacity="0" result="BackgroundImageFix"/>
<feColorMatrix in="SourceAlpha" type="matrix" values="0 0 0 0 0 0 0 0 0 0 0 0 0 0 0 0 0 0 127 0"/>
<feOffset dy="4"/>
<feGaussianBlur stdDeviation="10"/>
<feColorMatrix type="matrix" values="0 0 0 0 0 0 0 0 0 0 0 0 0 0 0 0 0 0 0.1 0"/>
<feBlend mode="normal" in2="BackgroundImageFix" result="effect1_dropShadow"/>
<feBlend mode="normal" in="SourceGraphic" in2="effect1_dropShadow" result="shape"/>
</filter>
</defs>
</svg>
