<svg width="38" height="38" viewBox="0 0 38 38" fill="none" xmlns="http://www.w3.org/2000/svg">
<path d="M32.1503 17.1997H29.3003V14.7597C29.3003 8.03973 1.82031 8.03973 1.82031 14.7597V26.6297C1.82031 31.6297 7.32033 36.1497 12.9903 36.1497H19.9103C23.6803 36.1497 26.9903 33.6997 28.7803 31.2597H32.1503C34.8603 31.2597 36.4603 28.6197 36.4603 25.4897V22.4897C36.4603 19.3197 34.8603 17.1997 32.1503 17.1997ZM33.2303 25.4497C33.2314 26.2184 32.9374 26.9582 32.4089 27.5164C31.8805 28.0747 31.1579 28.4087 30.3903 28.4497H28.9703V20.2697H30.4703C32.0203 20.2697 33.2303 21.9997 33.2303 23.4997V25.4497Z" fill="#FDD44B"/>
<path d="M4.25 16.1304C5.62 20.7604 25.35 20.7604 26.72 16.1304C25.35 11.4904 5.62 11.4904 4.25 16.1304Z" fill="#99746A"/>
<path d="M19.34 36.5096H12.55C6.38999 36.5096 1 31.9697 1 26.7897V15.1096C1 10.8896 8.74 9.38965 15.37 9.38965C22 9.38965 29.77 10.8896 29.77 15.1096V16.5696H31.4C34.49 16.5696 36.81 19.2397 36.81 22.7797V25.6996C36.81 29.2396 34.54 31.8196 31.4 31.8196H28.53C27.4334 33.2248 26.0424 34.3728 24.4547 35.183C22.8671 35.9933 21.1213 36.4461 19.34 36.5096Z" stroke="black" stroke-width="1.5" stroke-linecap="round" stroke-linejoin="round"/>
<path d="M15.3294 20.3002C10.4094 20.3002 4.84943 19.3002 4.00943 16.3702L3.93945 16.1302L4.00943 15.8802C4.84943 12.9802 10.4094 11.9502 15.3294 11.9502C20.2494 11.9502 25.8094 12.9502 26.6494 15.8802L26.7195 16.1302L26.6494 16.3702C25.7694 19.2702 20.2494 20.3002 15.3294 20.3002Z" stroke="black" stroke-width="1.5" stroke-linecap="round" stroke-linejoin="round"/>
<path d="M10.8787 15.5397C10.4787 14.3897 7.11872 4.23969 11.1387 1.17969" stroke="black" stroke-width="1.5" stroke-linecap="round" stroke-linejoin="round"/>
<path d="M22.5495 15.36C22.1595 14.21 18.7995 4.06 22.8095 1" stroke="black" stroke-width="1.5" stroke-linecap="round" stroke-linejoin="round"/>
<path d="M17.0098 15.1503C16.6198 14.1503 13.3098 7.52031 16.0798 4.32031" stroke="black" stroke-width="1.5" stroke-linecap="round" stroke-linejoin="round"/>
<path d="M29.4395 27.8301V20.8301H31.2794C32.4294 20.8301 33.3294 22.3201 33.3294 23.6001V25.3101C33.3645 25.9208 33.1661 26.5221 32.7742 26.9919C32.3824 27.4617 31.8266 27.7649 31.2195 27.8401L29.4395 27.8301Z" stroke="black" stroke-width="1.5" stroke-linecap="round" stroke-linejoin="round"/>
</svg>
