<svg width="56" height="31" viewBox="0 0 56 31" fill="none" xmlns="http://www.w3.org/2000/svg">
<path d="M1.42969 1H4.42969C5.95969 1 5.99969 2.16 5.99969 3.69V15.69H15.4797C17.0097 15.69 17.0397 16.85 17.0397 18.38V20.29H1.42969V1Z" fill="#99746A" stroke="#020202" stroke-width="1.5" stroke-linecap="round" stroke-linejoin="round"/>
<path d="M23.0002 3.7002V5.05017C22.9857 5.36293 22.9072 5.66939 22.7696 5.95062C22.632 6.23185 22.4382 6.48187 22.2001 6.68524C21.9621 6.88861 21.6849 7.04105 21.3856 7.13306C21.0864 7.22506 20.7714 7.25467 20.4602 7.22015H20.3402C20.0362 7.25062 19.7292 7.21772 19.4385 7.12354C19.1479 7.02935 18.88 6.87595 18.6516 6.67297C18.4233 6.47 18.2395 6.22187 18.1119 5.94427C17.9843 5.66668 17.9155 5.36565 17.9102 5.06018V3.7002" stroke="black" stroke-width="1.5" stroke-linecap="round" stroke-linejoin="round"/>
<path d="M2.33008 20.3398V29.8898" stroke="#020202" stroke-width="1.5" stroke-linecap="round" stroke-linejoin="round"/>
<path d="M15.2207 20.3398V29.8898" stroke="#020202" stroke-width="1.5" stroke-linecap="round" stroke-linejoin="round"/>
<path d="M40.8906 20.3398V29.8898" stroke="#020202" stroke-width="1.5" stroke-linecap="round" stroke-linejoin="round"/>
<path d="M18.6797 12.0498L36.7697 30.1398" stroke="#020202" stroke-width="1.5" stroke-linecap="round" stroke-linejoin="round"/>
<path d="M36.7697 12.0498L18.6797 30.1398" stroke="#020202" stroke-width="1.5" stroke-linecap="round" stroke-linejoin="round"/>
<path d="M37.5295 3.7002V5.05017C37.515 5.36293 37.4365 5.66939 37.2989 5.95062C37.1613 6.23185 36.9674 6.48187 36.7294 6.68524C36.4913 6.88861 36.2141 7.04105 35.9149 7.13306C35.6156 7.22506 35.3006 7.25467 34.9894 7.22015H34.8694C34.5654 7.25062 34.2584 7.21772 33.9678 7.12354C33.6771 7.02935 33.4092 6.87595 33.1808 6.67297C32.9525 6.47 32.7687 6.22187 32.6411 5.94427C32.5135 5.66668 32.4448 5.36565 32.4395 5.06018V3.7002" stroke="black" stroke-width="1.5" stroke-linecap="round" stroke-linejoin="round"/>
<path d="M54.8297 16.7098V20.3398H39.1797V18.4298C39.1797 16.8998 39.1797 15.7398 40.7397 15.7398H50.2297V3.73981C50.2297 2.20981 50.2297 1.0498 51.7897 1.0498H54.7897L54.8297 16.7098Z" fill="#99746A" stroke="#020202" stroke-width="1.5" stroke-linecap="round" stroke-linejoin="round"/>
<path d="M39.3799 7.33008H15.8499C15.0159 7.33008 14.3398 8.00614 14.3398 8.84009V10.4301C14.3398 11.264 15.0159 11.9401 15.8499 11.9401H39.3799C40.2138 11.9401 40.8899 11.264 40.8899 10.4301V8.84009C40.8899 8.00614 40.2138 7.33008 39.3799 7.33008Z" fill="#E56A77" stroke="#020202" stroke-width="1.5" stroke-linecap="round" stroke-linejoin="round"/>
<path d="M53.7793 20.3398V29.8898" stroke="#020202" stroke-width="1.5" stroke-linecap="round" stroke-linejoin="round"/>
</svg>
