<svg width="41" height="36" viewBox="0 0 41 36" fill="none" xmlns="http://www.w3.org/2000/svg">
<path d="M5.92952 12.9902C3.508 12.9902 1 15.0442 1 17.4549V35.1298H4.16743V33.238H36.4039V35.1298H39.5605V17.4549C39.5605 15.0442 38.2525 12.9902 35.8418 12.9902H5.92952Z" fill="#99746A" stroke="#020202" stroke-width="1.5" stroke-linecap="round" stroke-linejoin="round"/>
<path d="M28.7397 7.27164H12.4161C11.6702 7.27164 11.0756 6.85004 11.0756 6.33115V2.43944C11.0756 1.92054 11.6702 1.50977 12.4161 1.50977H28.7397C29.4856 1.50977 30.0802 1.92054 30.0802 2.43944V6.30957C30.0802 6.85009 29.4856 7.27164 28.7397 7.27164Z" fill="#E56A77" stroke="#020202" stroke-width="1.5" stroke-linecap="round" stroke-linejoin="round"/>
<path d="M3.60527 23.1956C3.14581 23.3831 2.71894 23.6421 2.34047 23.9631C1.62156 24.6534 1.15041 25.5616 1 26.5468V28.4819H39.5605V26.5468C39.5605 24.5577 38.5877 22.8713 36.5661 22.8713H37.031V21.7038C37.031 19.639 35.8851 17.877 33.7878 17.877H26.9665C24.8693 17.877 23.7234 19.639 23.7234 21.7038V22.8713H17.4101V21.7038C17.4101 19.639 16.2534 17.877 14.167 17.877H8.46993C5.31331 17.877 4.14579 19.639 4.14579 21.7038V22.8713L3.60527 23.1956Z" fill="#EDC951" stroke="#020202" stroke-width="1.5" stroke-linecap="round" stroke-linejoin="round"/>
<path d="M4.1671 22.8711H37.0306" stroke="#020202" stroke-width="1.5" stroke-linecap="round" stroke-linejoin="round"/>
</svg>
