<svg width="22" height="20" viewBox="0 0 22 20" fill="none" xmlns="http://www.w3.org/2000/svg">
<path fill-rule="evenodd" clip-rule="evenodd" d="M13.5113 7.75567C13.5113 10.9344 10.9344 13.5113 7.75567 13.5113C4.5769 13.5113 2 10.9344 2 7.75567C2 4.5769 4.5769 2 7.75567 2C10.9344 2 13.5113 4.5769 13.5113 7.75567ZM13.1731 13.3056C11.7752 14.6703 9.86365 15.5113 7.75567 15.5113C3.47233 15.5113 0 12.039 0 7.75567C0 3.47233 3.47233 0 7.75567 0C12.039 0 15.5113 3.47233 15.5113 7.75567C15.5113 9.21213 15.1099 10.5748 14.4115 11.7391C14.4585 11.7716 14.5033 11.8085 14.5454 11.85L20.7748 17.9835C21.1683 18.371 21.1732 19.0042 20.7858 19.3977C20.3983 19.7912 19.7651 19.7961 19.3716 19.4087L13.1731 13.3056Z" fill="#ABABAB"/>
</svg>
