<svg width="26" height="40" viewBox="0 0 26 40" fill="none" xmlns="http://www.w3.org/2000/svg">
<path d="M24.5223 24.2056H24.6112C23.87 21.6679 22.3463 19.4291 20.2576 17.8085C20.1877 17.7576 20.1289 17.693 20.085 17.6185C20.0411 17.544 20.0129 17.4613 20.0022 17.3755C19.9939 17.2878 20.0034 17.1993 20.0301 17.1153C20.0568 17.0313 20.1002 16.9536 20.1577 16.8868C21.5989 15.1265 22.384 12.9203 22.3789 10.6453C22.4218 9.40858 22.2153 8.17586 21.7716 7.02067C21.328 5.86548 20.6563 4.81145 19.7966 3.92139C18.937 3.03133 17.9069 2.3235 16.7678 1.84004C15.6287 1.35659 14.4039 1.10742 13.1664 1.10742C11.929 1.10742 10.7042 1.35659 9.56515 1.84004C8.42605 2.3235 7.39599 3.03133 6.5363 3.92139C5.67661 4.81145 5.00494 5.86548 4.56131 7.02067C4.11768 8.17586 3.91114 9.40858 3.95409 10.6453C3.94987 12.9201 4.73488 15.126 6.17527 16.8868C6.28411 17.0252 6.33579 17.2001 6.31966 17.3755C6.30892 17.4613 6.28076 17.544 6.23682 17.6185C6.19289 17.693 6.13415 17.7576 6.06424 17.8085C3.9793 19.4258 2.45929 21.661 1.72178 24.1945C0.956005 26.814 1.05331 29.6104 1.9993 32.1703C2.94528 34.7303 4.68979 36.918 6.97494 38.4101H19.247C21.022 37.2569 22.4789 35.6763 23.4841 33.8135C24.4893 31.9506 25.0105 29.8651 24.9998 27.7484C25.0038 26.5511 24.8431 25.359 24.5223 24.2056Z" fill="#C1A0CD" stroke="black" stroke-width="1.5" stroke-linecap="round" stroke-linejoin="round"/>
<path d="M16.1372 30.125C15.34 31.0132 14.4707 31.8342 13.5384 32.5795C13.4427 32.6523 13.3255 32.6913 13.2053 32.6905C13.0844 32.695 12.9661 32.6556 12.8721 32.5795C11.7615 31.691 8.0965 28.5924 8.0965 25.6715C8.0786 24.8634 8.38189 24.0811 8.93981 23.4961C9.49773 22.9111 10.2648 22.5712 11.0729 22.5508C11.4732 22.5525 11.8689 22.6361 12.2356 22.7966C12.6023 22.957 12.9323 23.1909 13.2053 23.4837C13.4752 23.1901 13.8031 22.9557 14.1682 22.7951C14.5332 22.6346 14.9276 22.5514 15.3265 22.5508C16.1356 22.5712 16.9038 22.9107 17.4635 23.4954C18.0231 24.08 18.3289 24.8623 18.314 25.6715C18.2768 26.5378 18.025 27.3812 17.581 28.126L16.1372 30.125Z" fill="#FFC82C" stroke="#020202" stroke-width="1.5" stroke-miterlimit="10"/>
<path d="M18.3902 9.86815C16.2866 8.91892 14.4818 7.41371 13.1704 5.51465C11.8522 7.41184 10.0446 8.91632 7.93957 9.86815C7.93957 9.96811 7.93957 10.068 7.93957 10.1791C8.00162 11.5262 8.58041 12.7975 9.55564 13.7289C10.5309 14.6602 11.8275 15.1799 13.176 15.1799C14.5245 15.1799 15.8212 14.6602 16.7964 13.7289C17.7716 12.7975 18.3504 11.5262 18.4125 10.1791C18.4108 10.0751 18.4034 9.97132 18.3902 9.86815ZM11.6378 10.9787H10.9715C10.8854 10.9787 10.8002 10.9618 10.7207 10.9289C10.6412 10.8959 10.569 10.8477 10.5082 10.7868C10.4473 10.726 10.399 10.6538 10.3661 10.5743C10.3331 10.4948 10.3162 10.4095 10.3162 10.3235C10.3162 10.2374 10.3331 10.1522 10.3661 10.0727C10.399 9.99323 10.4473 9.921 10.5082 9.86016C10.569 9.79931 10.6412 9.75107 10.7207 9.71815C10.8002 9.68522 10.8854 9.66826 10.9715 9.66826H11.6156C11.7894 9.66826 11.9561 9.73727 12.0789 9.86016C12.2018 9.98304 12.2708 10.1497 12.2708 10.3235C12.2708 10.4973 12.2018 10.664 12.0789 10.7868C11.9561 10.9097 11.7894 10.9787 11.6156 10.9787H11.6378ZM15.3361 10.9787H14.7808C14.607 10.9787 14.4404 10.9097 14.3175 10.7868C14.1946 10.664 14.1256 10.4973 14.1256 10.3235C14.1256 10.1497 14.1946 9.98304 14.3175 9.86016C14.4404 9.73727 14.607 9.66826 14.7808 9.66826H15.3361C15.5099 9.66826 15.6765 9.73727 15.7994 9.86016C15.9223 9.98304 15.9914 10.1497 15.9914 10.3235C15.9914 10.4973 15.9223 10.664 15.7994 10.7868C15.6765 10.9097 15.5099 10.9787 15.3361 10.9787Z" fill="#FCD8BB"/>
<path d="M6.58603 10.1791C6.65564 11.8688 7.37583 13.4662 8.596 14.6371C9.81618 15.8081 11.4419 16.4619 13.133 16.4619C14.8241 16.4619 16.4498 15.8081 17.6699 14.6371C18.8901 13.4662 19.6104 11.8688 19.68 10.1791C19.6788 9.91164 19.6602 9.64456 19.6244 9.37951C19.6298 9.34641 19.6298 9.31262 19.6244 9.27952C19.4002 7.71921 18.621 6.29205 17.4297 5.25972C16.2384 4.2274 14.7149 3.65918 13.1386 3.65918C11.5622 3.65918 10.0387 4.2274 8.84742 5.25972C7.65613 6.29205 6.8769 7.71921 6.65267 9.27952C6.65267 9.27952 6.65267 9.34619 6.65267 9.37951C6.61321 9.64433 6.59095 9.9114 6.58603 10.1791ZM13.1274 15.41C11.7401 15.41 10.4096 14.8589 9.42861 13.8779C8.44763 12.897 7.89653 11.5664 7.89653 10.1791C7.89079 10.0755 7.89079 9.97175 7.89653 9.86817C9.99835 8.91607 11.8024 7.41144 13.1163 5.51466C14.4345 7.41185 16.2423 8.91633 18.3472 9.86817C18.3472 9.96812 18.3472 10.068 18.3472 10.1791C18.3443 11.5636 17.7938 12.8907 16.8158 13.8708C15.8379 14.8508 14.5119 15.4042 13.1274 15.41ZM14.4602 5.1148C15.2462 5.32131 15.9734 5.70773 16.5844 6.24356C17.1954 6.77939 17.6734 7.44997 17.9807 8.20228C16.6048 7.42983 15.4056 6.37813 14.4602 5.1148ZM11.8058 5.1148C10.8578 6.3757 9.65914 7.4269 8.28527 8.20228C8.58963 7.4481 9.06674 6.77586 9.67819 6.23963C10.2897 5.7034 11.0184 5.31811 11.8058 5.1148Z" fill="#020202"/>
<path d="M11.8376 5.11426C11.0509 5.31918 10.3229 5.70502 9.71168 6.24105C9.10045 6.77708 8.62286 7.4485 8.317 8.20174C9.69294 7.42928 10.8922 6.37759 11.8376 5.11426Z" fill="#99746A"/>
<path d="M14.4925 5.11426C15.4406 6.37516 16.6393 7.42636 18.0131 8.20174C17.7073 7.4485 17.2297 6.77708 16.6185 6.24105C16.0072 5.70502 15.2792 5.31918 14.4925 5.11426Z" fill="#99746A"/>
<path d="M15.3362 9.63477H14.792C14.706 9.63477 14.6208 9.65173 14.5413 9.68466C14.4618 9.71758 14.3896 9.76589 14.3287 9.82673C14.2679 9.88758 14.2196 9.95981 14.1867 10.0393C14.1537 10.1188 14.1368 10.204 14.1368 10.29C14.1368 10.3761 14.1537 10.4613 14.1867 10.5408C14.2196 10.6203 14.2679 10.6925 14.3287 10.7534C14.3896 10.8142 14.4618 10.8625 14.5413 10.8954C14.6208 10.9284 14.706 10.9453 14.792 10.9453H15.3362C15.51 10.9453 15.6767 10.8762 15.7995 10.7534C15.9224 10.6305 15.9915 10.4638 15.9915 10.29C15.9915 10.1163 15.9224 9.94962 15.7995 9.82673C15.6767 9.70385 15.51 9.63477 15.3362 9.63477Z" fill="#020202"/>
<path d="M11.6385 9.63477H10.9722C10.8862 9.63477 10.801 9.65173 10.7215 9.68466C10.642 9.71758 10.5697 9.76589 10.5089 9.82673C10.4481 9.88758 10.3998 9.95981 10.3668 10.0393C10.3339 10.1188 10.3169 10.204 10.3169 10.29C10.3169 10.3761 10.3339 10.4613 10.3668 10.5408C10.3998 10.6203 10.4481 10.6925 10.5089 10.7534C10.5697 10.8142 10.642 10.8625 10.7215 10.8954C10.801 10.9284 10.8862 10.9453 10.9722 10.9453H11.6164C11.7902 10.9453 11.9568 10.8762 12.0797 10.7534C12.2026 10.6305 12.2716 10.4638 12.2716 10.29C12.2716 10.1163 12.2026 9.94962 12.0797 9.82673C11.9568 9.70385 11.7902 9.63477 11.6164 9.63477H11.6385Z" fill="#020202"/>
</svg>
