<svg width="22" height="21" viewBox="0 0 22 21" fill="none" xmlns="http://www.w3.org/2000/svg">
<mask id="path-1-inside-1" fill="white">
<path fill-rule="evenodd" clip-rule="evenodd" d="M2 0C0.895431 0 0 0.89543 0 2V7C0 8.10457 0.89543 9 2 9H7C8.10457 9 9 8.10457 9 7V2C9 0.895431 8.10457 0 7 0H2ZM15 0C13.8954 0 13 0.89543 13 2V7C13 8.10457 13.8954 9 15 9H20C21.1046 9 22 8.10457 22 7V2C22 0.895431 21.1046 0 20 0H15ZM13 14C13 12.8954 13.8954 12 15 12H20C21.1046 12 22 12.8954 22 14V19C22 20.1046 21.1046 21 20 21H15C13.8954 21 13 20.1046 13 19V14ZM2 12C0.895431 12 0 12.8954 0 14V19C0 20.1046 0.89543 21 2 21H7C8.10457 21 9 20.1046 9 19V14C9 12.8954 8.10457 12 7 12H2Z"/>
</mask>
<path d="M1 2C1 1.44772 1.44772 1 2 1V-1C0.343146 -1 -1 0.343146 -1 2H1ZM1 7V2H-1V7H1ZM2 8C1.44772 8 1 7.55228 1 7H-1C-1 8.65685 0.343146 10 2 10V8ZM7 8H2V10H7V8ZM8 7C8 7.55228 7.55228 8 7 8V10C8.65685 10 10 8.65685 10 7H8ZM8 2V7H10V2H8ZM7 1C7.55228 1 8 1.44772 8 2H10C10 0.343146 8.65685 -1 7 -1V1ZM2 1H7V-1H2V1ZM14 2C14 1.44772 14.4477 1 15 1V-1C13.3431 -1 12 0.343146 12 2H14ZM14 7V2H12V7H14ZM15 8C14.4477 8 14 7.55228 14 7H12C12 8.65685 13.3431 10 15 10V8ZM20 8H15V10H20V8ZM21 7C21 7.55229 20.5523 8 20 8V10C21.6569 10 23 8.65685 23 7H21ZM21 2V7H23V2H21ZM20 1C20.5523 1 21 1.44772 21 2H23C23 0.343146 21.6569 -1 20 -1V1ZM15 1H20V-1H15V1ZM15 11C13.3431 11 12 12.3431 12 14H14C14 13.4477 14.4477 13 15 13V11ZM20 11H15V13H20V11ZM23 14C23 12.3431 21.6569 11 20 11V13C20.5523 13 21 13.4477 21 14H23ZM23 19V14H21V19H23ZM20 22C21.6569 22 23 20.6569 23 19H21C21 19.5523 20.5523 20 20 20V22ZM15 22H20V20H15V22ZM12 19C12 20.6569 13.3431 22 15 22V20C14.4477 20 14 19.5523 14 19H12ZM12 14V19H14V14H12ZM1 14C1 13.4477 1.44772 13 2 13V11C0.343146 11 -1 12.3431 -1 14H1ZM1 19V14H-1V19H1ZM2 20C1.44771 20 1 19.5523 1 19H-1C-1 20.6569 0.343146 22 2 22V20ZM7 20H2V22H7V20ZM8 19C8 19.5523 7.55229 20 7 20V22C8.65685 22 10 20.6569 10 19H8ZM8 14V19H10V14H8ZM7 13C7.55228 13 8 13.4477 8 14H10C10 12.3431 8.65685 11 7 11V13ZM2 13H7V11H2V13Z" fill="#522762" mask="url(#path-1-inside-1)"/>
</svg>
