<svg width="36" height="39" viewBox="0 0 36 39" fill="none" xmlns="http://www.w3.org/2000/svg">
<path d="M1 6.7998V14.7998C1 17.0089 2.79086 18.7998 5 18.7998H13.8C16.0091 18.7998 17.8 17.0089 17.8 14.7998V6.7998" stroke="black" stroke-width="1.5" stroke-linecap="round" stroke-linejoin="round"/>
<path d="M17.8 6.7998V14.7998C17.8 17.0089 19.5909 18.7998 21.8 18.7998H30.6C32.8091 18.7998 34.6 17.0089 34.6 14.7998V6.7998" stroke="black" stroke-width="1.5" stroke-linecap="round" stroke-linejoin="round"/>
<path d="M1 26C1 28.4229 1 31.5482 1 34.0018C1 36.211 2.79086 38 5 38H13.8C16.0091 38 17.8 36.2091 17.8 34V26" stroke="black" stroke-width="1.5" stroke-linecap="round" stroke-linejoin="round"/>
<path d="M17.8 26V34C17.8 36.2091 19.5909 38 21.8 38H30.6C32.8091 38 34.6 36.2091 34.6 34V26" stroke="black" stroke-width="1.5" stroke-linecap="round" stroke-linejoin="round"/>
<path d="M9.40093 12.35C11.5166 12.35 13.4658 11.7797 14.9081 10.8182C16.3452 9.86013 17.3509 8.45427 17.3509 6.8C17.3509 5.14573 16.3452 3.73987 14.9081 2.78185C13.4658 1.82033 11.5166 1.25 9.40093 1.25C7.28529 1.25 5.33601 1.82033 3.89373 2.78185C2.4567 3.73987 1.45093 5.14573 1.45093 6.8C1.45093 8.45427 2.4567 9.86013 3.89373 10.8182C5.33601 11.7797 7.28529 12.35 9.40093 12.35Z" fill="#FDD44B" stroke="black" stroke-width="1.5"/>
<path d="M9.39938 8.74961C10.4517 8.74961 11.4355 8.60854 12.1821 8.35965C12.5515 8.23651 12.9046 8.07336 13.1807 7.85576C13.4484 7.64483 13.7494 7.29359 13.7494 6.79961C13.7494 6.30563 13.4484 5.95439 13.1807 5.74346C12.9046 5.52586 12.5515 5.36271 12.1821 5.23957C11.4355 4.99068 10.4517 4.84961 9.39938 4.84961C8.34709 4.84961 7.36329 4.99068 6.61662 5.23957C6.24721 5.36271 5.89416 5.52586 5.61805 5.74346C5.3504 5.95439 5.04938 6.30563 5.04938 6.79961C5.04938 7.29359 5.3504 7.64483 5.61805 7.85576C5.89416 8.07336 6.24721 8.23651 6.61662 8.35965C7.36329 8.60854 8.34709 8.74961 9.39938 8.74961Z" fill="#E56A77" stroke="black" stroke-width="1.5"/>
<path d="M26.2009 12.35C28.3166 12.35 30.2659 11.7797 31.7081 10.8182C33.1452 9.86013 34.1509 8.45427 34.1509 6.8C34.1509 5.14573 33.1452 3.73987 31.7081 2.78185C30.2659 1.82033 28.3166 1.25 26.2009 1.25C24.0853 1.25 22.136 1.82033 20.6938 2.78185C19.2567 3.73987 18.2509 5.14573 18.2509 6.8C18.2509 8.45427 19.2567 9.86013 20.6938 10.8182C22.136 11.7797 24.0853 12.35 26.2009 12.35Z" fill="#FDD44B" stroke="black" stroke-width="1.5"/>
<path d="M26.1994 8.74961C27.2517 8.74961 28.2355 8.60854 28.9821 8.35965C29.3515 8.23651 29.7046 8.07336 29.9807 7.85576C30.2483 7.64483 30.5494 7.29359 30.5494 6.79961C30.5494 6.30563 30.2483 5.95439 29.9807 5.74346C29.7046 5.52586 29.3515 5.36271 28.9821 5.23957C28.2355 4.99068 27.2517 4.84961 26.1994 4.84961C25.1471 4.84961 24.1633 4.99068 23.4166 5.23957C23.0472 5.36271 22.6941 5.52586 22.418 5.74346C22.1504 5.95439 21.8494 6.30563 21.8494 6.79961C21.8494 7.29359 22.1504 7.64483 22.418 7.85576C22.6941 8.07336 23.0472 8.23651 23.4166 8.35965C24.1633 8.60854 25.1471 8.74961 26.1994 8.74961Z" fill="#E56A77" stroke="black" stroke-width="1.5"/>
<path d="M9.40093 30.35C11.5166 30.35 13.4658 29.7797 14.9081 28.8182C16.3452 27.8601 17.3509 26.4543 17.3509 24.8C17.3509 23.1457 16.3452 21.7399 14.9081 20.7818C13.4658 19.8203 11.5166 19.25 9.40093 19.25C7.28529 19.25 5.33601 19.8203 3.89373 20.7818C2.4567 21.7399 1.45093 23.1457 1.45093 24.8C1.45093 26.4543 2.4567 27.8601 3.89373 28.8182C5.33601 29.7797 7.28529 30.35 9.40093 30.35Z" fill="#FDD44B" stroke="black" stroke-width="1.5"/>
<path d="M9.39938 26.7496C10.4517 26.7496 11.4355 26.6085 12.1821 26.3597C12.5515 26.2365 12.9046 26.0734 13.1807 25.8558C13.4484 25.6448 13.7494 25.2936 13.7494 24.7996C13.7494 24.3056 13.4484 23.9544 13.1807 23.7435C12.9046 23.5259 12.5515 23.3627 12.1821 23.2396C11.4355 22.9907 10.4517 22.8496 9.39938 22.8496C8.34709 22.8496 7.36329 22.9907 6.61662 23.2396C6.24721 23.3627 5.89416 23.5259 5.61805 23.7435C5.3504 23.9544 5.04938 24.3056 5.04938 24.7996C5.04938 25.2936 5.3504 25.6448 5.61805 25.8558C5.89416 26.0734 6.24721 26.2365 6.61662 26.3597C7.36329 26.6085 8.34709 26.7496 9.39938 26.7496Z" fill="#E56A77" stroke="black" stroke-width="1.5"/>
<path d="M26.2009 30.35C28.3166 30.35 30.2659 29.7797 31.7081 28.8182C33.1452 27.8601 34.1509 26.4543 34.1509 24.8C34.1509 23.1457 33.1452 21.7399 31.7081 20.7818C30.2659 19.8203 28.3166 19.25 26.2009 19.25C24.0853 19.25 22.136 19.8203 20.6938 20.7818C19.2567 21.7399 18.2509 23.1457 18.2509 24.8C18.2509 26.4543 19.2567 27.8601 20.6938 28.8182C22.136 29.7797 24.0853 30.35 26.2009 30.35Z" fill="#FDD44B" stroke="black" stroke-width="1.5"/>
<path d="M26.1994 26.7496C27.2517 26.7496 28.2355 26.6085 28.9821 26.3597C29.3515 26.2365 29.7046 26.0734 29.9807 25.8558C30.2483 25.6448 30.5494 25.2936 30.5494 24.7996C30.5494 24.3056 30.2483 23.9544 29.9807 23.7435C29.7046 23.5259 29.3515 23.3627 28.9821 23.2396C28.2355 22.9907 27.2517 22.8496 26.1994 22.8496C25.1471 22.8496 24.1633 22.9907 23.4166 23.2396C23.0472 23.3627 22.6941 23.5259 22.418 23.7435C22.1504 23.9544 21.8494 24.3056 21.8494 24.7996C21.8494 25.2936 22.1504 25.6448 22.418 25.8558C22.6941 26.0734 23.0472 26.2365 23.4166 26.3597C24.1633 26.6085 25.1471 26.7496 26.1994 26.7496Z" fill="#E56A77" stroke="black" stroke-width="1.5"/>
</svg>
