<svg width="377" height="460" viewBox="0 0 377 460" fill="none" xmlns="http://www.w3.org/2000/svg">
<g filter="url(#filter0_d)">
<path d="M20 16V436H147.04C152.272 435.963 157.439 434.829 162.206 432.672C166.973 430.516 171.235 427.384 174.717 423.479C176.462 421.557 178.59 420.022 180.963 418.971C183.337 417.92 185.904 417.377 188.5 417.377C191.096 417.377 193.663 417.92 196.037 418.971C198.41 420.022 200.538 421.557 202.283 423.479C205.765 427.381 210.027 430.511 214.793 432.666C219.559 434.82 224.724 435.953 229.954 435.989H357V16H20Z" fill="white"/>
</g>
<defs>
<filter id="filter0_d" x="0" y="0" width="377" height="460" filterUnits="userSpaceOnUse" color-interpolation-filters="sRGB">
<feFlood flood-opacity="0" result="BackgroundImageFix"/>
<feColorMatrix in="SourceAlpha" type="matrix" values="0 0 0 0 0 0 0 0 0 0 0 0 0 0 0 0 0 0 127 0"/>
<feOffset dy="4"/>
<feGaussianBlur stdDeviation="10"/>
<feColorMatrix type="matrix" values="0 0 0 0 0 0 0 0 0 0 0 0 0 0 0 0 0 0 0.2 0"/>
<feBlend mode="normal" in2="BackgroundImageFix" result="effect1_dropShadow"/>
<feBlend mode="normal" in="SourceGraphic" in2="effect1_dropShadow" result="shape"/>
</filter>
</defs>
</svg>
