<svg width="377" height="459" viewBox="0 0 377 459" fill="none" xmlns="http://www.w3.org/2000/svg">
<g filter="url(#filter0_d)">
<path d="M20 16V435H147.04C152.272 434.955 157.439 433.594 162.206 431.005C166.973 428.416 171.235 424.656 174.717 419.967C176.462 417.66 178.59 415.817 180.963 414.555C183.337 413.294 185.904 412.642 188.5 412.642C191.096 412.642 193.663 413.294 196.037 414.555C198.41 415.817 200.538 417.66 202.283 419.967C205.765 424.653 210.027 428.41 214.793 430.997C219.559 433.584 224.724 434.943 229.954 434.987H357V16H20Z" fill="white"/>
</g>
<defs>
<filter id="filter0_d" x="0" y="0" width="377" height="459" filterUnits="userSpaceOnUse" color-interpolation-filters="sRGB">
<feFlood flood-opacity="0" result="BackgroundImageFix"/>
<feColorMatrix in="SourceAlpha" type="matrix" values="0 0 0 0 0 0 0 0 0 0 0 0 0 0 0 0 0 0 127 0"/>
<feOffset dy="4"/>
<feGaussianBlur stdDeviation="10"/>
<feColorMatrix type="matrix" values="0 0 0 0 0 0 0 0 0 0 0 0 0 0 0 0 0 0 0.1 0"/>
<feBlend mode="normal" in2="BackgroundImageFix" result="effect1_dropShadow"/>
<feBlend mode="normal" in="SourceGraphic" in2="effect1_dropShadow" result="shape"/>
</filter>
</defs>
</svg>
