<svg width="17" height="17" viewBox="0 0 17 17" fill="none" xmlns="http://www.w3.org/2000/svg">
<path fill-rule="evenodd" clip-rule="evenodd" d="M16.707 1.70711C17.0975 1.31658 17.0975 0.683417 16.707 0.292893C16.3164 -0.0976311 15.6833 -0.0976311 15.2927 0.292893L8.68686 6.89877L2.12117 0.333083C1.73065 -0.057441 1.09748 -0.057441 0.706956 0.333083C0.316431 0.723608 0.316431 1.35677 0.706956 1.7473L7.27265 8.31299L0.706956 14.8787C0.316432 15.2692 0.316432 15.9024 0.706956 16.2929C1.09748 16.6834 1.73065 16.6834 2.12117 16.2929L8.68686 9.7272L15.2927 16.3331C15.6833 16.7236 16.3164 16.7236 16.707 16.3331C17.0975 15.9426 17.0975 15.3094 16.707 14.9189L10.1011 8.31299L16.707 1.70711Z" fill="#D86666"/>
</svg>
