<svg width="42" height="36" viewBox="0 0 42 36" fill="none" xmlns="http://www.w3.org/2000/svg">
<path d="M41.2194 34.7701L37.9994 29.7001L35.3394 25.5201C34.6194 26.2401 34.5194 24.9402 33.7994 24.2302L32.4794 23.3001L30.8094 22.1801C30.5494 22.3101 27.9594 24.2302 27.6794 24.2302C27.3994 24.2302 25.5294 25.2302 24.9094 25.2302L25.3194 24.4702L23.4394 21.4702L19.9994 16.3502C19.2794 17.0602 18.1394 15.7901 17.4294 15.0801L15.7094 13.4102L14.5694 16.8901C14.2194 17.2501 13.5694 16.3201 13.0894 16.3201C12.6094 16.3201 10.6594 17.7302 10.3094 17.4202L7.1994 23.1301L0.859375 34.7401H41.2194V34.7701Z" fill="#99746A"/>
<path d="M30.5192 18.64C30.4152 18.4715 30.267 18.3348 30.0906 18.2448C29.9143 18.1549 29.7166 18.1152 29.5192 18.13C29.328 18.1359 29.1416 18.1916 28.9785 18.2916C28.8154 18.3916 28.6812 18.5323 28.5892 18.7L23.8691 27.36L25.6891 29.18L30.5391 26.75C30.8812 26.5789 31.2688 26.5207 31.6461 26.5836C32.0233 26.6465 32.371 26.8273 32.6392 27.1L34.3691 28.82L35.9492 27.23L30.5192 18.64Z" fill="white"/>
<path d="M15.21 10.2697C15.019 10.2766 14.8331 10.3327 14.6702 10.4326C14.5072 10.5324 14.3728 10.6727 14.28 10.8397L9 20.5496L11.59 22.8596L16.4 18.0597C16.5684 17.8885 16.7692 17.7526 16.9907 17.6599C17.2122 17.5671 17.4499 17.5193 17.69 17.5193C17.9301 17.5193 18.1678 17.5671 18.3893 17.6599C18.6108 17.7526 18.8115 17.8885 18.98 18.0597L20.71 19.7797L21.44 19.0397L16.19 10.7797C16.0885 10.6136 15.9436 10.4783 15.7709 10.3884C15.5982 10.2985 15.4043 10.2575 15.21 10.2697Z" fill="white"/>
<path d="M41.2191 34.7697L37.9991 29.7097L35.3392 25.5197L30.5192 17.9597C30.4169 17.7896 30.269 17.6516 30.0922 17.5615C29.9154 17.4713 29.7169 17.4326 29.5192 17.4497C29.3275 17.4536 29.1403 17.5085 28.9769 17.6087C28.8134 17.7089 28.6797 17.8507 28.5892 18.0197L25.1691 24.2897L23.3992 21.5097L21.3192 18.4197L21.3892 18.3497L16.1392 10.0997C16.0353 9.93918 15.8916 9.80815 15.7222 9.71943C15.5528 9.6307 15.3634 9.58729 15.1722 9.59333C14.9811 9.59936 14.7947 9.65467 14.6313 9.75391C14.4678 9.85315 14.3327 9.99294 14.2391 10.1597L10.2391 17.4497L8.99915 19.8897L7.20914 23.1797L0.869141 34.7897H41.2291L41.2191 34.7697Z" stroke="black" stroke-width="1.5" stroke-linecap="round" stroke-linejoin="round"/>
<path d="M35.2092 13.7397C38.5285 13.7397 41.2192 11.049 41.2192 7.72974C41.2192 4.41051 38.5285 1.71973 35.2092 1.71973C31.89 1.71973 29.1992 4.41051 29.1992 7.72974C29.1992 11.049 31.89 13.7397 35.2092 13.7397Z" fill="#FFC82C" stroke="#020202" stroke-width="1.5" stroke-miterlimit="10"/>
</svg>
