<svg width="31" height="35" viewBox="0 0 31 35" fill="none" xmlns="http://www.w3.org/2000/svg">
<path d="M2.50056 13.5205H20.0006C21.4006 13.5205 21.1306 14.6805 21.1306 16.1205V32.4505C21.1306 33.8805 19.9806 33.7605 18.5806 33.7605H3.90056C2.50056 33.7605 1.35057 34.1805 1.35057 32.7605V16.1405C1.37057 14.6805 1.10056 13.5205 2.50056 13.5205Z" fill="#FDD44B"/>
<path d="M20.5709 7.17023V9.51019C20.5488 9.58758 20.5449 9.66904 20.5597 9.74817C20.5744 9.82729 20.6073 9.90193 20.6558 9.96619C20.7042 10.0304 20.767 10.0826 20.839 10.1185C20.911 10.1544 20.9904 10.173 21.0709 10.173C21.1514 10.173 21.2308 10.1544 21.3028 10.1185C21.3748 10.0826 21.4376 10.0304 21.486 9.96619C21.5345 9.90193 21.5674 9.82729 21.5821 9.74817C21.5968 9.66904 21.593 9.58758 21.5709 9.51019V9.3302H23.5709C25.0359 9.36947 26.4255 9.98867 27.4343 11.0518C28.443 12.115 28.9885 13.5351 28.9509 15.0002V23.0002C28.9885 24.4653 28.443 25.8854 27.4343 26.9485C26.4255 28.0117 25.0359 28.631 23.5709 28.6702H21.0909C20.9521 28.6754 20.8208 28.7349 20.7255 28.8359C20.6301 28.9369 20.5782 29.0713 20.5809 29.2102V33.3802H1.80087V14.0302H20.5709V27.4302C20.5488 27.5076 20.5449 27.589 20.5597 27.6682C20.5744 27.7473 20.6073 27.8219 20.6558 27.8862C20.7042 27.9504 20.767 28.0026 20.839 28.0385C20.911 28.0743 20.9904 28.093 21.0709 28.093C21.1514 28.093 21.2308 28.0743 21.3028 28.0385C21.3748 28.0026 21.4376 27.9504 21.486 27.8862C21.5345 27.8219 21.5674 27.7473 21.5821 27.6682C21.5968 27.589 21.593 27.5076 21.5709 27.4302V27.2502H23.5709C24.6602 27.2188 25.6927 26.7571 26.4423 25.9662C27.192 25.1753 27.5978 24.1196 27.5709 23.0302V15.0302C27.5978 13.9408 27.192 12.8851 26.4423 12.0942C25.6927 11.3033 24.6602 10.8416 23.5709 10.8102H21.0909C20.9521 10.8154 20.8208 10.8749 20.7255 10.9759C20.6301 11.0769 20.5782 11.2113 20.5809 11.3502V12.7102H1.80087V7.2002H20.5709V7.17023ZM20.5709 5.7002H1.80087C1.40305 5.7002 1.02154 5.85822 0.740235 6.13953C0.45893 6.42083 0.300874 6.80237 0.300874 7.2002V12.7102C0.298401 12.9421 0.34977 13.1715 0.450898 13.3802C0.349635 13.5924 0.298299 13.825 0.300874 14.0602V33.4402C0.300874 33.838 0.45893 34.2195 0.740235 34.5009C1.02154 34.7822 1.40305 34.9402 1.80087 34.9402H20.5709C20.9687 34.9402 21.3502 34.7822 21.6315 34.5009C21.9128 34.2195 22.0709 33.838 22.0709 33.4402V30.2302H23.5609C24.4845 30.2147 25.3959 30.0165 26.2425 29.647C27.0891 29.2776 27.8543 28.7443 28.4938 28.0778C29.1334 27.4112 29.6347 26.6247 29.9688 25.7635C30.303 24.9024 30.4635 23.9836 30.4409 23.0602V15.0602C30.4635 14.1367 30.303 13.218 29.9688 12.3568C29.6347 11.4957 29.1334 10.7092 28.4938 10.0427C27.8543 9.37615 27.0891 8.84281 26.2425 8.47339C25.3959 8.10397 24.4845 7.90576 23.5609 7.8902H22.0709V7.23022C22.0709 6.8324 21.9128 6.45086 21.6315 6.16956C21.3502 5.88825 20.9687 5.73022 20.5709 5.73022V5.7002ZM22.0709 12.3102H23.5609C24.2524 12.3414 24.9035 12.645 25.3719 13.1546C25.8403 13.6642 26.088 14.3385 26.0609 15.0302V23.0302C26.088 23.7219 25.8403 24.3962 25.3719 24.9058C24.9035 25.4155 24.2524 25.719 23.5609 25.7502H22.0709V14.0302C22.07 13.7943 22.0153 13.5618 21.9109 13.3502C22.0155 13.1423 22.0703 12.9129 22.0709 12.6802V12.2802V12.3102Z" fill="black"/>
<path d="M6.30939 3.89014C6.85191 3.89155 7.38764 4.01095 7.87939 4.24011C7.98068 4.28712 8.09478 4.29893 8.20352 4.27356C8.31226 4.24819 8.40938 4.18714 8.4794 4.10016C9.07594 3.34392 9.83524 2.73182 10.7009 2.30939C11.5665 1.88696 12.5162 1.66507 13.4794 1.66016C14.8224 1.68304 16.1263 2.11573 17.2165 2.90033C18.3067 3.68493 19.1312 4.78391 19.5794 6.05011H2.85938C3.18068 5.40802 3.6726 4.86679 4.28116 4.48578C4.88972 4.10477 5.59144 3.8987 6.30939 3.89014Z" stroke="black" stroke-width="1.5" stroke-linecap="round" stroke-linejoin="round"/>
<path d="M17.64 19.21C17.5664 19.2113 17.4938 19.2271 17.4264 19.2564C17.3589 19.2858 17.2979 19.3281 17.2469 19.381C17.1958 19.434 17.1556 19.4964 17.1287 19.5649C17.1018 19.6333 17.0886 19.7064 17.0899 19.78C17.0899 19.9258 17.1479 20.0657 17.251 20.1689C17.3542 20.272 17.4941 20.33 17.64 20.33C17.7858 20.33 17.9257 20.272 18.0288 20.1689C18.132 20.0657 18.1899 19.9258 18.1899 19.78C18.1913 19.7064 18.1781 19.6333 18.1512 19.5649C18.1242 19.4964 18.0841 19.434 18.033 19.381C17.9819 19.3281 17.9209 19.2858 17.8535 19.2564C17.786 19.2271 17.7135 19.2113 17.64 19.21Z" fill="#34150C"/>
<path d="M9.41024 25.6904C9.33668 25.693 9.26437 25.71 9.19741 25.7406C9.13045 25.7712 9.07016 25.8147 9.02001 25.8685C8.96986 25.9224 8.93081 25.9856 8.90511 26.0546C8.87941 26.1235 8.86756 26.1969 8.87023 26.2704C8.85967 26.3482 8.8659 26.4273 8.88845 26.5025C8.911 26.5777 8.94937 26.6471 9.001 26.7062C9.05262 26.7653 9.11629 26.8127 9.18774 26.8452C9.25918 26.8776 9.33677 26.8944 9.41524 26.8944C9.49372 26.8944 9.57127 26.8776 9.64272 26.8452C9.71417 26.8127 9.77786 26.7653 9.82949 26.7062C9.88111 26.6471 9.91949 26.5777 9.94204 26.5025C9.96459 26.4273 9.97078 26.3482 9.96023 26.2704C9.9629 26.1961 9.95072 26.1219 9.9244 26.0523C9.89808 25.9827 9.85814 25.9191 9.80694 25.8651C9.75573 25.8111 9.69427 25.7678 9.62615 25.7378C9.55804 25.7078 9.48465 25.6917 9.41024 25.6904Z" fill="#34150C"/>
<path d="M8.00063 27.8904C7.88482 27.8844 7.76988 27.9133 7.67064 27.9732C7.5714 28.0332 7.4924 28.1216 7.44386 28.2269C7.39533 28.3322 7.37949 28.4497 7.39836 28.5641C7.41724 28.6785 7.46997 28.7846 7.54976 28.8688C7.62955 28.9529 7.73275 29.0112 7.84599 29.0361C7.95924 29.061 8.07737 29.0514 8.18511 29.0085C8.29285 28.9657 8.38524 28.8915 8.4504 28.7956C8.51555 28.6997 8.55046 28.5864 8.55061 28.4704C8.55328 28.3961 8.54111 28.3219 8.51479 28.2523C8.48847 28.1827 8.44853 28.119 8.39733 28.065C8.34612 28.011 8.28468 27.9678 8.21657 27.9378C8.14845 27.9078 8.07504 27.8917 8.00063 27.8904Z" fill="#34150C"/>
<path d="M4.52046 20.0098C4.45086 20.0111 4.38221 20.0261 4.31841 20.0539C4.2546 20.0817 4.1969 20.1219 4.14861 20.1721C4.10032 20.2222 4.06239 20.2814 4.03697 20.3462C4.01156 20.411 3.99915 20.4801 4.00047 20.5497V32.3698C3.97837 32.4471 3.97452 32.5286 3.98924 32.6077C4.00397 32.6869 4.03688 32.7615 4.08534 32.8257C4.13381 32.89 4.19654 32.9421 4.26857 32.978C4.34061 33.0139 4.41999 33.0326 4.50047 33.0326C4.58096 33.0326 4.66034 33.0139 4.73238 32.978C4.80441 32.9421 4.86714 32.89 4.91561 32.8257C4.96407 32.7615 4.99698 32.6869 5.01171 32.6077C5.02643 32.5286 5.02258 32.4471 5.00048 32.3698V20.5497C5.0036 20.4157 4.95581 20.2855 4.86675 20.1853C4.77768 20.0851 4.65393 20.0224 4.52046 20.0098Z" fill="white"/>
<path d="M4.52046 15.6797C4.45086 15.681 4.38221 15.696 4.31841 15.7239C4.2546 15.7517 4.1969 15.7918 4.14861 15.842C4.10032 15.8921 4.06239 15.9513 4.03697 16.0161C4.01156 16.0809 3.99915 16.1501 4.00047 16.2197V18.3797C3.97837 18.4571 3.97452 18.5386 3.98924 18.6177C4.00397 18.6968 4.03688 18.7714 4.08534 18.8357C4.13381 18.8999 4.19654 18.9521 4.26857 18.988C4.34061 19.0239 4.41999 19.0425 4.50047 19.0425C4.58096 19.0425 4.66034 19.0239 4.73238 18.988C4.80441 18.9521 4.86714 18.8999 4.91561 18.8357C4.96407 18.7714 4.99698 18.6968 5.01171 18.6177C5.02643 18.5386 5.02258 18.4571 5.00048 18.3797V16.2197C5.0036 16.0857 4.95581 15.9554 4.86675 15.8552C4.77768 15.755 4.65393 15.6923 4.52046 15.6797Z" fill="white"/>
</svg>
