<svg width="21" height="13" viewBox="0 0 21 13" fill="none" xmlns="http://www.w3.org/2000/svg">
<path fill-rule="evenodd" clip-rule="evenodd" d="M1 1.5C1 1.22386 1.22386 1 1.5 1H19.5C19.7761 1 20 1.22386 20 1.5C20 1.77614 19.7761 2 19.5 2H1.5C1.22386 2 1 1.77614 1 1.5ZM1 6.5C1 6.22386 1.22386 6 1.5 6H19.5C19.7761 6 20 6.22386 20 6.5C20 6.77614 19.7761 7 19.5 7H1.5C1.22386 7 1 6.77614 1 6.5ZM1.5 11C1.22386 11 1 11.2239 1 11.5C1 11.7761 1.22386 12 1.5 12H19.5C19.7761 12 20 11.7761 20 11.5C20 11.2239 19.7761 11 19.5 11H1.5Z" fill="white"/>
<path d="M1.5 0.5C0.947715 0.5 0.5 0.947715 0.5 1.5H1.5V0.5ZM19.5 0.5H1.5V1.5H19.5V0.5ZM20.5 1.5C20.5 0.947715 20.0523 0.5 19.5 0.5V1.5H20.5ZM19.5 2.5C20.0523 2.5 20.5 2.05228 20.5 1.5H19.5V2.5ZM1.5 2.5H19.5V1.5H1.5V2.5ZM0.5 1.5C0.5 2.05228 0.947715 2.5 1.5 2.5V1.5H0.5ZM1.5 5.5C0.947715 5.5 0.5 5.94772 0.5 6.5H1.5V5.5ZM19.5 5.5H1.5V6.5H19.5V5.5ZM20.5 6.5C20.5 5.94772 20.0523 5.5 19.5 5.5V6.5H20.5ZM19.5 7.5C20.0523 7.5 20.5 7.05229 20.5 6.5H19.5V7.5ZM1.5 7.5H19.5V6.5H1.5V7.5ZM0.5 6.5C0.5 7.05229 0.947715 7.5 1.5 7.5V6.5H0.5ZM1.5 11.5V10.5C0.947715 10.5 0.5 10.9477 0.5 11.5H1.5ZM1.5 11.5H0.5C0.5 12.0523 0.947715 12.5 1.5 12.5V11.5ZM19.5 11.5H1.5V12.5H19.5V11.5ZM19.5 11.5V12.5C20.0523 12.5 20.5 12.0523 20.5 11.5H19.5ZM19.5 11.5H20.5C20.5 10.9477 20.0523 10.5 19.5 10.5V11.5ZM1.5 11.5H19.5V10.5H1.5V11.5Z" fill="white"/>
</svg>
