<svg width="37" height="28" viewBox="0 0 37 28" fill="none" xmlns="http://www.w3.org/2000/svg">
<path d="M9.30061 26.7397C7.87142 26.756 6.45562 26.4626 5.15059 25.8797C3.87743 25.2726 2.79662 24.3258 2.02729 23.1436C1.25797 21.9614 0.830031 20.5897 0.7906 19.1797C0.7906 18.9897 0.7906 13.9398 0.7906 13.7598C0.744849 11.0219 1.72184 8.36549 3.53059 6.30974C4.41286 5.28989 5.46505 4.43055 6.64058 3.76976C9.64211 2.14977 13.0103 1.33011 16.4206 1.38976C19.8829 1.417 23.3092 2.09547 26.5206 3.38976C30.2106 4.86976 32.8706 6.49978 34.4006 8.22978C35.3212 9.16336 35.8931 10.3848 36.0206 11.6897C36.0206 11.8997 36.0206 17.1898 36.0206 17.3898C35.9161 18.5578 35.3627 19.6397 34.4768 20.4081C33.591 21.1764 32.4416 21.5714 31.2706 21.5098C30.3896 21.4972 29.5146 21.3626 28.6706 21.1097C27.7287 20.8333 26.7522 20.6919 25.7706 20.6897C22.7706 20.6897 19.6506 21.9597 15.6806 24.8097C13.8021 26.0921 11.5749 26.7658 9.30061 26.7397Z" fill="#E56A77"/>
<path d="M16.4315 2.14006C19.7979 2.16211 23.1297 2.82034 26.2515 4.08006C29.8415 5.51006 32.3916 7.08007 33.8516 8.72007C34.6454 9.53209 35.1391 10.5901 35.2515 11.7201C35.2515 12.1501 35.2515 16.5501 35.2515 17.2901C35.1797 18.2809 34.7188 19.203 33.9693 19.8551C33.2198 20.5071 32.2427 20.8361 31.2515 20.7701C30.4384 20.7571 29.6309 20.6326 28.8516 20.4001C27.845 20.1029 26.801 19.9514 25.7515 19.9501C22.5815 19.9501 19.3316 21.2701 15.2216 24.2101C13.4804 25.396 11.418 26.0206 9.31153 26C7.9937 26.0177 6.68754 25.7517 5.48157 25.2201C4.33738 24.679 3.36488 23.8324 2.67139 22.7737C1.9779 21.7149 1.59039 20.4851 1.55158 19.2201C1.55158 18.6801 1.55158 14.1401 1.55158 13.8301V13.7701C1.51165 11.2266 2.42076 8.75948 4.10156 6.85008C4.9231 5.9002 5.90454 5.10143 7.00153 4.49003C9.88071 2.93867 13.1116 2.15682 16.3815 2.22007L16.4315 2.14006ZM16.3815 0.720074C12.8529 0.657039 9.36751 1.50423 6.26154 3.18004C5.00066 3.8846 3.8708 4.8014 2.92157 5.89006C0.995795 8.07424 -0.0455253 10.8985 0.00152773 13.81C0.00152773 13.81 0.00152773 19.29 0.00152773 19.31C0.0451379 20.8563 0.516951 22.3602 1.36438 23.6543C2.21181 24.9484 3.40167 25.982 4.80158 26.6401C6.20206 27.2734 7.72466 27.5909 9.26154 27.57C11.6803 27.5913 14.0471 26.8686 16.0416 25.5C19.8216 22.8 22.8615 21.5 25.7015 21.5C26.6123 21.5006 27.5182 21.6319 28.3915 21.8901C29.3036 22.1635 30.2494 22.3082 31.2015 22.32C32.5676 22.3867 33.906 21.9186 34.9327 21.0151C35.9595 20.1115 36.594 18.8436 36.7015 17.4801C36.7015 17.4801 36.7015 11.7501 36.7015 11.7101C36.5801 10.2337 35.9512 8.84505 34.9216 7.78007C33.3116 5.96007 30.5615 4.27007 26.7615 2.78007C23.4581 1.46646 19.9365 0.787921 16.3815 0.780072V0.720074Z" fill="black"/>
<path d="M0.951172 17.6105C1.62131 18.4974 2.38582 19.3088 3.2312 20.0306C4.98605 21.3348 7.12524 22.0174 9.31116 21.9706C11.7274 21.9855 14.0902 21.2596 16.0812 19.8906C19.9112 17.1406 22.8812 15.8906 25.7212 15.8906C26.6248 15.8892 27.5239 16.0172 28.3912 16.2706C29.2993 16.5476 30.2418 16.6957 31.1912 16.7106C33.0112 16.5783 34.729 15.8183 36.0512 14.5605" stroke="black" stroke-width="1.5" stroke-linecap="round" stroke-linejoin="round"/>
<path d="M32.1511 6.37988L27.1211 15.7399" stroke="black" stroke-width="1.5" stroke-linecap="round" stroke-linejoin="round"/>
<path d="M27.1221 3.87988L18.9121 18.0499" stroke="black" stroke-width="1.5" stroke-linecap="round" stroke-linejoin="round"/>
<path d="M20.5705 1.76953L9.31055 21.9695" stroke="black" stroke-width="1.5" stroke-linecap="round" stroke-linejoin="round"/>
<path d="M12.4515 1.76953L2.77148 19.6695" stroke="black" stroke-width="1.5" stroke-linecap="round" stroke-linejoin="round"/>
</svg>
