<svg width="66" height="26" viewBox="0 0 66 26" fill="none" xmlns="http://www.w3.org/2000/svg">
<path d="M19.0035 6.70799C19.0745 5.17037 19.7353 3.71923 20.8485 2.6562C21.9617 1.59317 23.4418 1 24.981 1C26.5203 1 28.0004 1.59317 29.1137 2.6562C30.2269 3.71923 30.8876 5.17037 30.9586 6.70799" fill="#CE593F"/>
<path d="M19.0035 6.70799C19.0745 5.17037 19.7353 3.71923 20.8485 2.6562C21.9617 1.59317 23.4418 1 24.981 1C26.5203 1 28.0004 1.59317 29.1137 2.6562C30.2269 3.71923 30.8876 5.17037 30.9586 6.70799" stroke="black" stroke-width="1.5" stroke-miterlimit="10"/>
<path d="M41.1299 14.3473C41.1299 9.12731 46.2226 4.90039 52.5884 4.90039C58.9543 4.90039 64.047 9.12731 64.047 14.3473" fill="#FDD44B"/>
<path d="M41.1299 14.3473C41.1299 9.12731 46.2226 4.90039 52.5884 4.90039C58.9543 4.90039 64.047 9.12731 64.047 14.3473" stroke="black" stroke-width="1.5" stroke-miterlimit="10"/>
<path d="M46.9114 15.2764C46.9805 13.8153 47.6096 12.4369 48.6681 11.4273C49.7266 10.4177 51.1333 9.85449 52.5961 9.85449C54.0588 9.85449 55.4655 10.4177 56.524 11.4273C57.5825 12.4369 58.2116 13.8153 58.2808 15.2764" fill="#FDD44B"/>
<path d="M46.9114 15.2764C46.9805 13.8153 47.6096 12.4369 48.6681 11.4273C49.7266 10.4177 51.1333 9.85449 52.5961 9.85449C54.0588 9.85449 55.4655 10.4177 56.524 11.4273C57.5825 12.4369 58.2116 13.8153 58.2808 15.2764" stroke="black" stroke-width="1.5" stroke-miterlimit="10"/>
<path d="M24.9864 12.2214C24.9864 7.00141 30.0791 2.77441 36.445 2.77441C42.0087 2.77441 46.6304 6.7977 47.4835 10.63C47.758 12.549 47.9026 14.4844 47.9163 16.4229" fill="#FDD44B"/>
<path d="M24.9864 12.2214C24.9864 7.00141 30.0791 2.77441 36.445 2.77441C42.0087 2.77441 46.6304 6.7977 47.4835 10.63C47.758 12.549 47.9026 14.4844 47.9163 16.4229" stroke="black" stroke-width="1.5" stroke-miterlimit="10"/>
<path d="M29.0471 14.7801C29.1253 12.9196 29.9194 11.1613 31.2635 9.87255C32.6075 8.58379 34.3976 7.86426 36.2597 7.86426C38.1218 7.86426 39.9118 8.58379 41.2559 9.87255C42.6 11.1613 43.394 12.9196 43.4722 14.7801" fill="#FDD44B"/>
<path d="M29.0471 14.7801C29.1253 12.9196 29.9194 11.1613 31.2635 9.87255C32.6075 8.58379 34.3976 7.86426 36.2597 7.86426C38.1218 7.86426 39.9118 8.58379 41.2559 9.87255C42.6 11.1613 43.394 12.9196 43.4722 14.7801" stroke="black" stroke-width="1.5" stroke-miterlimit="10"/>
<path d="M2.17122 14.5765C2.17122 8.12146 8.04054 2.87598 15.2849 2.87598C22.5293 2.87598 28.3986 8.12146 28.3986 14.5765" fill="#FDD44B"/>
<path d="M2.17122 14.5765C2.17122 8.12146 8.04054 2.87598 15.2849 2.87598C22.5293 2.87598 28.3986 8.12146 28.3986 14.5765" stroke="black" stroke-width="1.5" stroke-miterlimit="10"/>
<path d="M5.5705 15.3022C5.5705 10.8843 9.92476 7.30664 15.2848 7.30664C20.6449 7.30664 24.9864 10.8843 24.9864 15.3022" fill="#FDD44B"/>
<path d="M5.5705 15.3022C5.5705 10.8843 9.92476 7.30664 15.2848 7.30664C20.6449 7.30664 24.9864 10.8843 24.9864 15.3022" stroke="black" stroke-width="1.5" stroke-miterlimit="10"/>
<path d="M10.2692 16.4223C10.235 15.7431 10.3392 15.064 10.5755 14.4264C10.8118 13.7888 11.1753 13.2058 11.6439 12.713C12.1125 12.2202 12.6764 11.8279 13.3013 11.5597C13.9263 11.2916 14.5991 11.1533 15.2792 11.1533C15.9592 11.1533 16.6321 11.2916 17.2571 11.5597C17.882 11.8279 18.4458 12.2202 18.9144 12.713C19.383 13.2058 19.7465 13.7888 19.9828 14.4264C20.2192 15.064 20.3233 15.7431 20.2891 16.4223" fill="#FDD44B"/>
<path d="M10.2692 16.4223C10.235 15.7431 10.3392 15.064 10.5755 14.4264C10.8118 13.7888 11.1753 13.2058 11.6439 12.713C12.1125 12.2202 12.6764 11.8279 13.3013 11.5597C13.9263 11.2916 14.5991 11.1533 15.2792 11.1533C15.9592 11.1533 16.6321 11.2916 17.2571 11.5597C17.882 11.8279 18.4458 12.2202 18.9144 12.713C19.383 13.2058 19.7465 13.7888 19.9828 14.4264C20.2192 15.064 20.3233 15.7431 20.2891 16.4223" stroke="black" stroke-width="1.5" stroke-miterlimit="10"/>
<path d="M31.646 16.4222C31.5979 15.7624 31.6864 15.0999 31.9058 14.4759C32.1252 13.8519 32.4709 13.2798 32.9213 12.7954C33.3717 12.3109 33.9171 11.9245 34.5235 11.6603C35.13 11.3961 35.7843 11.2598 36.4458 11.2598C37.1073 11.2598 37.7617 11.3961 38.3681 11.6603C38.9745 11.9245 39.5199 12.3109 39.9704 12.7954C40.4208 13.2798 40.7665 13.8519 40.9859 14.4759C41.2054 15.0999 41.2938 15.7624 41.2457 16.4222" fill="#CE593F"/>
<path d="M31.646 16.4222C31.5979 15.7624 31.6864 15.0999 31.9058 14.4759C32.1252 13.8519 32.4709 13.2798 32.9213 12.7954C33.3717 12.3109 33.9171 11.9245 34.5235 11.6603C35.13 11.3961 35.7843 11.2598 36.4458 11.2598C37.1073 11.2598 37.7617 11.3961 38.3681 11.6603C38.9745 11.9245 39.5199 12.3109 39.9704 12.7954C40.4208 13.2798 40.7665 13.8519 40.9859 14.4759C41.2054 15.0999 41.2938 15.7624 41.2457 16.4222" stroke="black" stroke-width="1.5" stroke-miterlimit="10"/>
<path d="M1 15.1113C2.2697 17.1975 3.74544 19.151 5.40513 20.9425C6.41493 22.0511 7.49974 23.0891 8.65179 24.049C9.11661 24.2195 9.60805 24.3058 10.1032 24.3037H53.0474C55.0717 24.3037 58.1401 22.152 61.5522 18.447C62.5962 17.2885 63.5129 16.0917 64.2768 15.1113H1Z" fill="#5C9B3B" stroke="#020202" stroke-width="1.5" stroke-linecap="round" stroke-linejoin="round"/>
</svg>
