<svg width="37" height="37" viewBox="0 0 37 37" fill="none" xmlns="http://www.w3.org/2000/svg">
<g filter="url(#filter0_d)">
<path fill-rule="evenodd" clip-rule="evenodd" d="M26.707 7.70711C27.0975 7.31658 27.0975 6.68342 26.707 6.29289C26.3164 5.90237 25.6833 5.90237 25.2927 6.29289L18.6869 12.8988L12.1212 6.33308C11.7306 5.94256 11.0975 5.94256 10.707 6.33308C10.3164 6.72361 10.3164 7.35677 10.707 7.7473L17.2726 14.313L10.707 20.8787C10.3164 21.2692 10.3164 21.9024 10.707 22.2929C11.0975 22.6834 11.7306 22.6834 12.1212 22.2929L18.6869 15.7272L25.2927 22.3331C25.6833 22.7236 26.3164 22.7236 26.707 22.3331C27.0975 21.9426 27.0975 21.3094 26.707 20.9189L20.1011 14.313L26.707 7.70711Z" fill="#EE1919"/>
<path fill-rule="evenodd" clip-rule="evenodd" d="M26.707 7.70711C27.0975 7.31658 27.0975 6.68342 26.707 6.29289C26.3164 5.90237 25.6833 5.90237 25.2927 6.29289L18.6869 12.8988L12.1212 6.33308C11.7306 5.94256 11.0975 5.94256 10.707 6.33308C10.3164 6.72361 10.3164 7.35677 10.707 7.7473L17.2726 14.313L10.707 20.8787C10.3164 21.2692 10.3164 21.9024 10.707 22.2929C11.0975 22.6834 11.7306 22.6834 12.1212 22.2929L18.6869 15.7272L25.2927 22.3331C25.6833 22.7236 26.3164 22.7236 26.707 22.3331C27.0975 21.9426 27.0975 21.3094 26.707 20.9189L20.1011 14.313L26.707 7.70711Z" fill="#FF0000"/>
</g>
<defs>
<filter id="filter0_d" x="0.414062" y="0" width="36.5858" height="36.626" filterUnits="userSpaceOnUse" color-interpolation-filters="sRGB">
<feFlood flood-opacity="0" result="BackgroundImageFix"/>
<feColorMatrix in="SourceAlpha" type="matrix" values="0 0 0 0 0 0 0 0 0 0 0 0 0 0 0 0 0 0 127 0"/>
<feOffset dy="4"/>
<feGaussianBlur stdDeviation="5"/>
<feColorMatrix type="matrix" values="0 0 0 0 1 0 0 0 0 0.1 0 0 0 0 0.1 0 0 0 0.4 0"/>
<feBlend mode="normal" in2="BackgroundImageFix" result="effect1_dropShadow"/>
<feBlend mode="normal" in="SourceGraphic" in2="effect1_dropShadow" result="shape"/>
</filter>
</defs>
</svg>
