<svg width="42" height="33" viewBox="0 0 42 33" fill="none" xmlns="http://www.w3.org/2000/svg">
<path d="M40.17 29.1102C40.1544 28.7777 40.0079 28.4649 39.7625 28.2401C39.517 28.0152 39.1926 27.8967 38.86 27.9102H2.31C1.97741 27.8967 1.65298 28.0152 1.40753 28.2401C1.16209 28.4649 1.01557 28.7777 1 29.1102V30.3202C1.00644 30.4857 1.04543 30.6483 1.11478 30.7987C1.18412 30.9491 1.28244 31.0844 1.40411 31.1968C1.52579 31.3092 1.66844 31.3965 1.82388 31.4537C1.97932 31.5109 2.1445 31.5369 2.31 31.5302H38.86C39.0255 31.5369 39.1907 31.5109 39.3461 31.4537C39.5016 31.3965 39.6442 31.3092 39.7659 31.1968C39.8875 31.0844 39.9859 30.9491 40.0552 30.7987C40.1245 30.6483 40.1636 30.4857 40.17 30.3202V29.1102Z" fill="#CE593F"/>
<path d="M20.7804 4.7998C10.0804 4.7998 1.40039 13.3398 1.40039 24.7198H40.1704C40.1704 13.3398 31.4904 4.7998 20.7804 4.7998Z" fill="#C1A0CD"/>
<path d="M39.4691 25.1095H2.06915C1.82274 25.0976 1.58943 24.9951 1.41406 24.8215C1.2387 24.648 1.13366 24.4158 1.11914 24.1695C1.11914 18.958 3.18942 13.9599 6.87451 10.2748C10.5596 6.58975 15.5576 4.51953 20.7691 4.51953C25.9806 4.51953 30.9787 6.58975 34.6638 10.2748C38.3489 13.9599 40.4192 18.958 40.4192 24.1695C40.4192 24.2938 40.3945 24.4169 40.3466 24.5316C40.2988 24.6463 40.2286 24.7503 40.1403 24.8378C40.0519 24.9252 39.9471 24.9942 39.8319 25.0408C39.7167 25.0875 39.5934 25.1108 39.4691 25.1095V25.1095Z" stroke="black" stroke-width="1.5" stroke-linecap="round" stroke-linejoin="round"/>
<path d="M38.4 32.0201H3.20001C1.99001 32.0201 1 31.3001 1 30.4201V29.5101C1 28.6301 2.00001 27.9102 3.20001 27.9102H38.4C39.61 27.9102 40.6 28.6301 40.6 29.5101V30.4201C40.6 31.3001 39.61 32.0201 38.4 32.0201Z" fill="#FFC82C" stroke="#020202" stroke-width="1.5" stroke-miterlimit="10"/>
<path d="M20.7695 1V5.03" stroke="black" stroke-width="1.5" stroke-linecap="round" stroke-linejoin="round"/>
<path d="M23.5605 10.0195C23.5605 10.0195 31.5605 11.5695 32.5605 19.7395" stroke="black" stroke-width="1.5" stroke-linecap="round" stroke-linejoin="round"/>
</svg>
