<svg width="37" height="33" viewBox="0 0 37 33" fill="none" xmlns="http://www.w3.org/2000/svg">
<path d="M32.8574 16.4766C33.4327 16.6403 33.9389 16.9871 34.2993 17.4644C34.6598 17.9417 34.8548 18.5235 34.8548 19.1216C34.8548 19.7197 34.6598 20.3015 34.2993 20.7788C33.9389 21.2561 33.4327 21.6029 32.8574 21.7666V16.4766Z" fill="#FCD8BB"/>
<path d="M3.48758 16.4766V21.7666C2.91231 21.6029 2.40609 21.2561 2.04565 20.7788C1.68522 20.3015 1.49023 19.7197 1.49023 19.1216C1.49023 18.5235 1.68522 17.9417 2.04565 17.4644C2.40609 16.9871 2.91231 16.6403 3.48758 16.4766Z" fill="#FCD8BB"/>
<path d="M31.3576 14.2972V22.1172C31.3576 25.4172 30.1476 27.6972 27.6576 29.1172C25.5376 30.3072 22.4376 30.8872 18.1876 30.8872C13.9376 30.8872 10.8376 30.3072 8.70758 29.1172C6.22758 27.7172 5.01758 25.4372 5.01758 22.1172V14.2772C5.02204 11.4458 5.93744 8.69111 7.62845 6.42023C9.31945 4.14935 11.6963 2.48287 14.4076 1.66718C18.5376 1.66718 20.7376 4.66718 20.7376 6.85718C20.7376 7.65283 20.4215 8.41591 19.8589 8.97852C19.2963 9.54112 18.5332 9.85718 17.7376 9.85718C17.1408 9.85718 16.5685 9.62014 16.1466 9.19818C15.7246 8.77622 15.4876 8.20391 15.4876 7.60718C15.4876 7.16957 15.6614 6.74993 15.9709 6.44049C16.2803 6.13106 16.7 5.95721 17.1376 5.95721C17.3365 5.95721 17.5273 5.87814 17.6679 5.73749C17.8086 5.59684 17.8876 5.40613 17.8876 5.20721C17.8876 5.0083 17.8086 4.81753 17.6679 4.67688C17.5273 4.53623 17.3365 4.45721 17.1376 4.45721C16.303 4.45985 15.5033 4.79252 14.9131 5.38269C14.3229 5.97286 13.9902 6.77256 13.9876 7.60718C13.9876 8.60266 14.3824 9.55754 15.0853 10.2624C15.7883 10.9672 16.7421 11.3645 17.7376 11.3672C18.932 11.3645 20.0765 10.8882 20.9202 10.0427C21.7638 9.19722 22.2376 8.05157 22.2376 6.85718C22.202 6.00705 21.9981 5.17241 21.6376 4.40167C21.2772 3.63093 20.7673 2.93943 20.1376 2.36719C19.6125 1.86548 19.016 1.44424 18.3676 1.11719C21.8309 1.16453 25.1362 2.5743 27.5675 5.0412C29.9989 7.5081 31.3605 10.8335 31.3576 14.2972ZM27.2176 19.7372C27.2342 19.5373 27.2092 19.3362 27.1442 19.1465C27.0791 18.9568 26.9754 18.7826 26.8396 18.635C26.7038 18.4874 26.5388 18.3696 26.3552 18.2891C26.1715 18.2085 25.9731 18.1669 25.7726 18.1669C25.572 18.1669 25.3737 18.2085 25.19 18.2891C25.0063 18.3696 24.8414 18.4874 24.7056 18.635C24.5698 18.7826 24.4661 18.9568 24.401 19.1465C24.3359 19.3362 24.3109 19.5373 24.3276 19.7372C24.3578 20.0997 24.5231 20.4376 24.7907 20.6839C25.0584 20.9302 25.4088 21.0669 25.7726 21.0669C26.1363 21.0669 26.4868 20.9302 26.7544 20.6839C27.0221 20.4376 27.1874 20.0997 27.2176 19.7372ZM22.1576 22.8672C22.298 22.7266 22.3769 22.5359 22.3769 22.3372C22.3769 22.1384 22.298 21.9478 22.1576 21.8072C22.0886 21.7364 22.0062 21.6802 21.9152 21.6418C21.8242 21.6034 21.7264 21.5836 21.6276 21.5836C21.5288 21.5836 21.431 21.6034 21.34 21.6418C21.2489 21.6802 21.1665 21.7364 21.0976 21.8072C20.3239 22.5754 19.2779 23.0065 18.1876 23.0065C17.0973 23.0065 16.0513 22.5754 15.2776 21.8072C15.2086 21.7364 15.1262 21.6802 15.0352 21.6418C14.9442 21.6034 14.8464 21.5836 14.7476 21.5836C14.6488 21.5836 14.551 21.6034 14.46 21.6418C14.3689 21.6802 14.2865 21.7364 14.2176 21.8072C14.0771 21.9478 13.9982 22.1384 13.9982 22.3372C13.9982 22.5359 14.0771 22.7266 14.2176 22.8672C15.2725 23.9163 16.6998 24.5052 18.1876 24.5052C19.6754 24.5052 21.1027 23.9163 22.1576 22.8672ZM12.0476 19.7372C12.0496 19.4496 11.9659 19.1678 11.8074 18.9279C11.6488 18.6879 11.4225 18.5005 11.1571 18.3895C10.8917 18.2785 10.5994 18.249 10.3172 18.3046C10.035 18.3603 9.77568 18.4985 9.5723 18.7019C9.36891 18.9053 9.23062 19.1646 9.17499 19.4468C9.11936 19.729 9.14893 20.0214 9.25992 20.2867C9.3709 20.5521 9.55827 20.7784 9.79825 20.937C10.0382 21.0956 10.3199 21.1792 10.6076 21.1772C10.9887 21.1746 11.3534 21.022 11.6229 20.7525C11.8924 20.483 12.045 20.1183 12.0476 19.7372Z" fill="#FCD8BB"/>
<path d="M32.859 14.9369C33.8477 15.1108 34.743 15.629 35.3861 16.3998C36.0292 17.1706 36.3788 18.1442 36.3728 19.148C36.3668 20.1519 36.0057 21.1212 35.3534 21.8842C34.7011 22.6473 33.7997 23.1548 32.809 23.3169C32.7514 24.7822 32.3149 26.2075 31.5419 27.4536C30.769 28.6998 29.6861 29.7242 28.399 30.4269C26.049 31.7469 22.709 32.4269 18.189 32.4269C13.669 32.4269 10.329 31.7769 7.97902 30.4269C6.69193 29.7242 5.60907 28.6998 4.83614 27.4536C4.0632 26.2075 3.62661 24.7822 3.56902 23.3169C2.57809 23.156 1.67609 22.6496 1.02284 21.8873C0.369599 21.125 0.00729666 20.1561 0.000109025 19.1522C-0.00707861 18.1483 0.341335 17.1743 0.983599 16.4028C1.62586 15.6312 2.5205 15.1119 3.50902 14.9369V14.2969C3.6089 10.4711 5.19884 6.83568 7.94005 4.1651C10.6813 1.49452 14.357 0 18.184 0C22.0111 0 25.6868 1.49452 28.428 4.1651C31.1692 6.83568 32.7592 10.4711 32.859 14.2969V14.9369ZM34.859 19.1269C34.8616 18.5272 34.6674 17.9432 34.3061 17.4645C33.9448 16.9858 33.4365 16.6388 32.859 16.4769V21.7669C33.4365 21.6049 33.9448 21.258 34.3061 20.7793C34.6674 20.3006 34.8616 19.7166 34.859 19.1169V19.1269ZM31.359 22.1269V14.2869C31.3567 10.825 29.9914 7.50321 27.5584 5.04034C25.1255 2.57748 21.8207 1.17158 18.359 1.12689C19.0075 1.45395 19.6039 1.87518 20.129 2.37689C20.7587 2.94913 21.2686 3.64064 21.6291 4.41138C21.9896 5.18212 22.1935 6.01675 22.229 6.86688C22.229 8.06128 21.7552 9.20693 20.9116 10.0524C20.068 10.8979 18.9234 11.3742 17.729 11.3769C16.7326 11.3743 15.7778 10.9773 15.0732 10.2727C14.3687 9.56814 13.9717 8.61329 13.969 7.61688C13.9717 6.78053 14.3058 5.97937 14.8981 5.38892C15.4904 4.79846 16.2927 4.46685 17.129 4.46686C17.328 4.46686 17.5187 4.54587 17.6593 4.68652C17.8 4.82718 17.879 5.01795 17.879 5.21686C17.879 5.41577 17.8 5.60654 17.6593 5.74719C17.5187 5.88784 17.328 5.96686 17.129 5.96686C16.6914 5.96686 16.2717 6.1407 15.9623 6.45013C15.6529 6.75957 15.479 7.17928 15.479 7.61688C15.479 8.21362 15.7161 8.78593 16.138 9.20789C16.56 9.62984 17.1323 9.86688 17.729 9.86688C18.5247 9.86688 19.2878 9.55083 19.8504 8.98822C20.413 8.42561 20.729 7.66253 20.729 6.86688C20.729 4.70688 18.529 1.72688 14.389 1.67688C11.6796 2.49435 9.30498 4.16159 7.61589 6.43231C5.92681 8.70304 5.01283 11.4568 5.00902 14.2869V22.1169C5.00902 25.4169 6.21902 27.6969 8.69902 29.1169C10.819 30.3069 13.919 30.8869 18.179 30.8869C22.439 30.8869 25.529 30.3069 27.649 29.1169C30.149 27.7169 31.359 25.4369 31.359 22.1169V22.1269ZM3.48903 21.7669V16.4769C2.91376 16.6406 2.40754 16.9874 2.04711 17.4647C1.68667 17.942 1.49169 18.5238 1.49169 19.1219C1.49169 19.72 1.68667 20.3018 2.04711 20.7791C2.40754 21.2564 2.91376 21.6032 3.48903 21.7669Z" fill="#020202"/>
<path d="M25.7682 18.2871C26.0554 18.2852 26.3367 18.3685 26.5765 18.5266C26.8162 18.6848 27.0036 18.9106 27.1149 19.1753C27.2262 19.4401 27.2563 19.732 27.2015 20.0139C27.1467 20.2958 27.0094 20.5551 26.807 20.7589C26.6046 20.9627 26.3463 21.1018 26.0647 21.1585C25.7832 21.2153 25.4912 21.1872 25.2256 21.0777C24.9601 20.9683 24.733 20.7825 24.5732 20.5438C24.4135 20.3051 24.3282 20.0244 24.3282 19.7372C24.3268 19.5472 24.3631 19.3589 24.4349 19.183C24.5067 19.0072 24.6125 18.8472 24.7464 18.7124C24.8802 18.5777 25.0394 18.4707 25.2148 18.3977C25.3902 18.3247 25.5782 18.2871 25.7682 18.2871Z" fill="#99746A"/>
<path d="M22.1592 21.8071C22.2997 21.9477 22.3785 22.1383 22.3785 22.337C22.3785 22.5358 22.2997 22.7264 22.1592 22.8671C21.1043 23.9162 19.677 24.5051 18.1892 24.5051C16.7014 24.5051 15.2741 23.9162 14.2192 22.8671C14.1455 22.7984 14.0864 22.7156 14.0454 22.6236C14.0044 22.5316 13.9824 22.4323 13.9806 22.3316C13.9788 22.2309 13.9973 22.1309 14.0351 22.0375C14.0728 21.9441 14.1289 21.8592 14.2002 21.788C14.2714 21.7168 14.3562 21.6606 14.4496 21.6229C14.543 21.5852 14.643 21.5667 14.7437 21.5685C14.8444 21.5703 14.9437 21.5923 15.0357 21.6333C15.1277 21.6743 15.2105 21.7334 15.2792 21.8071C16.0512 22.5747 17.0956 23.0055 18.1842 23.0055C19.2728 23.0055 20.3172 22.5747 21.0892 21.8071C21.159 21.736 21.2423 21.6796 21.3341 21.641C21.426 21.6025 21.5246 21.5827 21.6242 21.5827C21.7238 21.5827 21.8224 21.6025 21.9143 21.641C22.0061 21.6796 22.0894 21.736 22.1592 21.8071Z" fill="#020202"/>
<path d="M10.6082 18.2871C10.895 18.2871 11.1753 18.3722 11.4138 18.5315C11.6522 18.6908 11.8381 18.9173 11.9478 19.1823C12.0576 19.4472 12.0863 19.7387 12.0303 20.02C11.9744 20.3013 11.8363 20.5597 11.6335 20.7625C11.4307 20.9652 11.1724 21.1033 10.8911 21.1592C10.6098 21.2152 10.3182 21.1865 10.0533 21.0768C9.78833 20.967 9.56189 20.7812 9.40256 20.5427C9.24323 20.3043 9.1582 20.0239 9.1582 19.7371C9.1582 19.5467 9.19569 19.3582 9.26855 19.1823C9.34142 19.0063 9.44824 18.8464 9.58289 18.7118C9.71753 18.5771 9.87736 18.4704 10.0533 18.3975C10.2292 18.3247 10.4178 18.2871 10.6082 18.2871Z" fill="#99746A"/>
</svg>
