<svg xmlns="http://www.w3.org/2000/svg" width="377" height="89"  fill="none">
	<g filter="url(#filter0_d)">
		<path d="M 20 0
		V 65
		H 147.04
		C 152 64.963 157.439 63.829 162.206 61.672
		C 166 59.516 171.235 56.384 174.717 52.479
		C 176 50.557 178.59 49.022 180.963 47.971
		C 183 46.92 185.904 46.377 188.5 46.377
		C 191 46.377 193.663 46.92 196.037 47.971
		C 198 49.022 200.538 50.557 202.283 52.479
		C 205 56.381 210.027 59.511 214.793 61.666
		C 219 63.82 224.724 64.953 229.954 64.989
		H 357
		V 0
		H 0
		Z" fill="white"/>
	</g>
	<defs>
		<filter id="filter0_d" x="0" y="0" width="377" height="89" filterUnits="userSpaceOnUse" color-interpolation-filters="sRGB">
			<feFlood flood-opacity="0" result="BackgroundImageFix"/>
			<feColorMatrix in="SourceAlpha" type="matrix" values="0 0 0 0 0 0 0 0 0 0 0 0 0 0 0 0 0 0 127 0"/>
			<feOffset dy="4"/>
			<feGaussianBlur stdDeviation="10"/>
			<feColorMatrix type="matrix" values="0 0 0 0 0 0 0 0 0 0 0 0 0 0 0 0 0 0 0.1 0"/>
			<feBlend mode="normal" in2="BackgroundImageFix" result="effect1_dropShadow"/>
			<feBlend mode="normal" in="SourceGraphic" in2="effect1_dropShadow" result="shape"/>
		</filter>
	</defs>
</svg>