<svg width="120" height="120" viewBox="0 0 120 120" fill="none" xmlns="http://www.w3.org/2000/svg">
<g filter="url(#filter0_d)">
<circle cx="56" cy="56" r="40" fill="#C1A0CD"/>
</g>
<path d="M56.7043 68.3369L56.4298 68.3527L56.202 68.5067C53.6529 70.2296 50.4285 71.3609 47.7931 72.0621C46.8417 72.3153 45.9769 72.5099 45.2619 72.6549C45.2887 72.5993 45.3157 72.5425 45.3429 72.4847C45.9461 71.2007 46.6342 69.3782 46.9599 67.2357L47.0668 66.5326L46.4376 66.2009C41.8849 63.8006 39 59.7154 39 55.1862C39 48.0893 46.1806 42 55.5 42C64.819 42 72 48.0893 72 55.1862C72 61.9733 65.4437 67.8319 56.7043 68.3369Z" stroke="white" stroke-width="2"/>
<defs>
<filter id="filter0_d" x="0" y="0" width="120" height="120" filterUnits="userSpaceOnUse" color-interpolation-filters="sRGB">
<feFlood flood-opacity="0" result="BackgroundImageFix"/>
<feColorMatrix in="SourceAlpha" type="matrix" values="0 0 0 0 0 0 0 0 0 0 0 0 0 0 0 0 0 0 127 0"/>
<feOffset dx="4" dy="4"/>
<feGaussianBlur stdDeviation="10"/>
<feColorMatrix type="matrix" values="0 0 0 0 0.321569 0 0 0 0 0.152941 0 0 0 0 0.384314 0 0 0 0.5 0"/>
<feBlend mode="normal" in2="BackgroundImageFix" result="effect1_dropShadow"/>
<feBlend mode="normal" in="SourceGraphic" in2="effect1_dropShadow" result="shape"/>
</filter>
</defs>
</svg>
