<svg width="22" height="20" viewBox="0 0 22 20" fill="none" xmlns="http://www.w3.org/2000/svg">
<path fill-rule="evenodd" clip-rule="evenodd" d="M0 1C0 0.447715 0.447715 0 1 0H21C21.5523 0 22 0.447715 22 1C22 1.55228 21.5523 2 21 2H1C0.447715 2 0 1.55228 0 1ZM0 19C0 18.4477 0.447715 18 1 18H21C21.5523 18 22 18.4477 22 19C22 19.5523 21.5523 20 21 20H1C0.447715 20 0 19.5523 0 19ZM1 9C0.447715 9 0 9.44772 0 10C0 10.5523 0.447715 11 1 11H21C21.5523 11 22 10.5523 22 10C22 9.44772 21.5523 9 21 9H1Z" fill="#A0A0A0"/>
</svg>
